<svg xmlns="http://www.w3.org/2000/svg" width="32.586" height="33.279" viewBox="0 0 32.586 33.279">
  <g id="love_tab" data-name="love tab" transform="translate(-5.332)">
    <path id="Path_5670" data-name="Path 5670" d="M31.792,0H11.459A6.127,6.127,0,0,0,5.332,6.127V19.463a6.127,6.127,0,0,0,6.127,6.127h2.918a.251.251,0,0,1,.251.251v6.578a.859.859,0,0,0,1.484.588l6.9-7.339a.251.251,0,0,1,.183-.079h8.594a6.127,6.127,0,0,0,6.127-6.127V6.127A6.127,6.127,0,0,0,31.792,0Z" fill="#a4a4ba"/>
    <path id="Path_5671" data-name="Path 5671" d="M17.206,34.853a.255.255,0,0,0-.243-.265H14.137a6.208,6.208,0,0,1-5.931-6.452V14.093a6.991,6.991,0,0,1,.218-1.74,6.124,6.124,0,0,0-3.093,5.324V31.013a6.127,6.127,0,0,0,6.127,6.127h2.918a.251.251,0,0,1,.251.251v6.578a.859.859,0,0,0,1.484.588l1.093-1.163V34.853Z" transform="translate(0 -11.55)" fill="#9d9db4"/>
    <path id="Path_5672" data-name="Path 5672" d="M147.075,105.543h0a3.983,3.983,0,0,0-5.633,0l-.879.879a.537.537,0,0,1-.759,0l-.865-.865a3.983,3.983,0,0,0-5.633,0h0a3.983,3.983,0,0,0,0,5.633l6.5,6.5a.537.537,0,0,0,.759,0l6.511-6.512A3.983,3.983,0,0,0,147.075,105.543Z" transform="translate(-118.566 -97.592)" fill="#ec5569"/>
    <path id="Path_5673" data-name="Path 5673" d="M147.075,105.543h0a3.983,3.983,0,0,0-5.633,0l-.879.879a.537.537,0,0,1-.759,0l-.865-.865a3.983,3.983,0,0,0-5.633,0h0a3.983,3.983,0,0,0,0,5.633l6.5,6.5a.537.537,0,0,0,.759,0l6.511-6.512A3.983,3.983,0,0,0,147.075,105.543Z" transform="translate(-118.566 -97.592)" fill="#fff"/>
    <path id="Path_5674" data-name="Path 5674" d="M135.392,111.406a3.983,3.983,0,0,1,0-5.633h0a3.963,3.963,0,0,1,1.775-1.027,3.98,3.98,0,0,0-3.858,1.027h0a3.983,3.983,0,0,0,0,5.633l6.5,6.5a.537.537,0,0,0,.759,0l.662-.662Z" transform="translate(-118.567 -97.808)" fill="#dce6eb"/>
  </g>
</svg>
