<svg xmlns="http://www.w3.org/2000/svg" width="21.405" height="23.521" viewBox="0 0 21.405 23.521">
  <g id="notifi" transform="translate(-42.666 -43.159)">
    <path id="Path_2165" data-name="Path 2165" d="M52.627,43.2a5.761,5.761,0,0,0-.883.123,7.5,7.5,0,0,0-5.867,7.3V53.61A7.176,7.176,0,0,1,43.321,59.1a1.87,1.87,0,0,0-.648,1.588,1.9,1.9,0,0,0,1.9,1.707H62.165a1.9,1.9,0,0,0,1.9-1.716,1.876,1.876,0,0,0-.658-1.588A7.168,7.168,0,0,1,60.86,53.61V50.626a7.5,7.5,0,0,0-6.271-7.383c-.1-.017-.21-.029-.316-.038A7.878,7.878,0,0,0,52.627,43.2Z" fill="#565572"/>
    <path id="Path_2166" data-name="Path 2166" d="M181.553,451.211A4.02,4.02,0,0,0,185.485,448h-7.864A4.02,4.02,0,0,0,181.553,451.211Z" transform="translate(-128.184 -384.531)" fill="#5850ec"/>
  </g>
</svg>
