<svg xmlns="http://www.w3.org/2000/svg" width="35.529" height="30.151" viewBox="0 0 35.529 30.151">
  <g id="scholarships_tab" data-name="scholarships tab" transform="translate(0 0.552)">
    <g id="Group_510" data-name="Group 510" transform="translate(0 -0.552)">
      <g id="Group_509" data-name="Group 509">
        <path id="Path_4261" data-name="Path 4261" d="M7.247,17.83v6.808s3.131,6.383,7.537,6.383c5.542,0,7.536-6.383,7.536-6.383V17.252l-6.507,7.011a.994.994,0,0,1-1.52.089Z" transform="translate(3.717 -5.595)" fill="#a4a4ba"/>
        <path id="Path_4262" data-name="Path 4262" d="M18.528,13.4a4.775,4.775,0,0,1-2.8-.71L5.109,16.372l12.6,6.309a2.155,2.155,0,0,0,2.054-.067l14.687-8.562a2.159,2.159,0,0,0-.119-3.8L19.125,2.642a2.158,2.158,0,0,0-2.054.066L2.383,11.269a2.16,2.16,0,0,0,.121,3.8L2.472,22.84a1.956,1.956,0,0,0-.544,3.391,3.926,3.926,0,0,1-1.24,2.4A2.162,2.162,0,0,0,.9,31.969l.27.194a2.149,2.149,0,0,0,1.729.348,2.174,2.174,0,0,0,1.414-1.053c1.034-1.847.533-4.246.191-5.4a1.951,1.951,0,0,0-.716-3.216l.031-7.422,11.53-3.993a2.139,2.139,0,0,1,.594-.939c-.038.133.037,1.742,2.476,1.742,1.4,0,2.535-.447,2.535-1.36a1.5,1.5,0,0,0-.111-.536,2.528,2.528,0,0,1,.629,1.483C21.476,12.882,20.156,13.4,18.528,13.4Z" transform="translate(0 -2.414)" fill="#a4a4ba"/>
      </g>
    </g>
  </g>
</svg>
