<svg xmlns="http://www.w3.org/2000/svg" width="29.498" height="32.306" viewBox="0 0 29.498 32.306">
  <g id="swipe" transform="translate(-21.323 0.001)">
    <g id="Group_815" data-name="Group 815" transform="translate(39.584 2.807)">
      <g id="Group_814" data-name="Group 814">
        <path id="Path_5624" data-name="Path 5624" d="M307.791,42.651h-8.428a.7.7,0,1,0,0,1.4h8.428a.7.7,0,0,0,0-1.4Z" transform="translate(-298.661 -42.651)" fill="#d0d0d0"/>
      </g>
    </g>
    <g id="Group_817" data-name="Group 817" transform="translate(45.202 -0.001)">
      <g id="Group_816" data-name="Group 816" transform="translate(0)">
        <path id="Path_5625" data-name="Path 5625" d="M388,3.015,385.189.205a.7.7,0,1,0-.993.993l2.312,2.312-2.313,2.313a.7.7,0,0,0,.994.993L388,4.008A.7.7,0,0,0,388,3.015Z" transform="translate(-383.989)" fill="#d0d0d0"/>
      </g>
    </g>
    <g id="Group_819" data-name="Group 819" transform="translate(21.323 2.807)">
      <g id="Group_818" data-name="Group 818" transform="translate(0)">
        <path id="Path_5626" data-name="Path 5626" d="M30.458,42.651H22.03a.7.7,0,0,0,0,1.4h8.428a.7.7,0,0,0,0-1.4Z" transform="translate(-21.328 -42.651)" fill="#d0d0d0"/>
      </g>
    </g>
    <g id="Group_821" data-name="Group 821" transform="translate(21.323 -0.001)">
      <g id="Group_820" data-name="Group 820" transform="translate(0 0)">
        <path id="Path_5627" data-name="Path 5627" d="M23.019,3.51,25.331,1.2A.7.7,0,1,0,24.338.2L21.528,3.014a.7.7,0,0,0,0,.993l2.809,2.809a.706.706,0,0,0,.5.205.7.7,0,0,0,.5-.206.7.7,0,0,0,0-.993Z" transform="translate(-21.323 0.001)" fill="#d0d0d0"/>
      </g>
    </g>
    <g id="Group_823" data-name="Group 823" transform="translate(24.715 4.212)">
      <g id="Group_822" data-name="Group 822">
        <path id="Path_5628" data-name="Path 5628" d="M96.129,73.817a2.8,2.8,0,0,0-1.562.475,2.81,2.81,0,0,0-4.214-1.4A2.816,2.816,0,0,0,87.7,71.007a2.787,2.787,0,0,0-1.4.378V66.793a2.809,2.809,0,1,0-5.619,0v11.94L78.237,76.9a3.683,3.683,0,0,0-4.788.34,2.108,2.108,0,0,0,0,2.979l10,10a6.283,6.283,0,0,0,4.471,1.851h3.291a7.735,7.735,0,0,0,7.726-7.726V76.626A2.812,2.812,0,0,0,96.129,73.817Zm1.4,10.535a6.329,6.329,0,0,1-6.321,6.321H87.922a4.885,4.885,0,0,1-3.478-1.44l-10-10a.7.7,0,0,1,0-.993,2.273,2.273,0,0,1,2.954-.209L80.959,80.7a.7.7,0,0,0,1.124-.562V66.793a1.4,1.4,0,1,1,2.809,0V77.328a.7.7,0,1,0,1.4,0V73.817a1.4,1.4,0,1,1,2.809,0v3.512a.7.7,0,1,0,1.4,0V75.221a1.4,1.4,0,0,1,2.809,0v2.107a.7.7,0,1,0,1.4,0v-.7a1.4,1.4,0,0,1,2.809,0Z" transform="translate(-72.832 -63.984)" fill="#d0d0d0"/>
      </g>
    </g>
  </g>
</svg>
